<?xml version="1.0" encoding="UTF-8" standalone="no" ?>
<!DOCTYPE svg PUBLIC "-//W3C//DTD SVG 1.1//EN" "http://www.w3.org/Graphics/SVG/1.1/DTD/svg11.dtd">
<svg xmlns="http://www.w3.org/2000/svg" xmlns:xlink="http://www.w3.org/1999/xlink" version="1.1" width="16" height="16" viewBox="0 0 16 16" xml:space="preserve">
    <g transform="matrix(1 0 0 1 8.21 8.46)">
        <g vector-effect="non-scaling-stroke">
            <g transform="matrix(0.67 0 0 0.67 -0.21 -0.46)">
                <path fill="#5E6569" folderColor="Blade" fill-rule="nonzero" transform="translate(-12, -12)" d="M 10 4 L 4 4 C 2.8899999999999997 4 2 4.89 2 6 L 2 18 C 2 19.097 2.903 20 4 20 L 20 20 C 21.097 20 22 19.097 22 18 L 22 8 C 22 6.89 21.1 6 20 6 L 12 6 L 10 4 z"/>
            </g>
            <g transform="matrix(0.62 0 0 0.62 1.94 2.41)">
                <path fill="#E87537" folderIconColor="Blade" vector-effect="non-scaling-stroke" transform="translate(-7.99, -7.5)" d="M 15.933 7.142 C 15.827 7.023000000000001 14.362 5.182 14.104 4.869 C 14.004605091589688 4.668708511514834 13.774645598103024 4.570033443407296 13.561 4.636 C 13.402 4.659 11.548 4.972 11.333 5.008 C 11.118 5.044 10.982 5.131 11.114 5.317 C 11.231000000000002 5.482 12.450000000000001 7.2170000000000005 12.719000000000001 7.598000000000001 L 7.875 8.764 L 4.021 2.3 C 3.94312811927316 2.081056067061792 3.7133510208213036 1.9554101630394283 3.487 2.008 C 3.138 2.022 0.464 2.244 0.274 2.261 C 0.08400000000000002 2.278 -0.126 2.361 0.06500000000000003 2.813 C 0.25600000000000006 3.265 3.292 9.831 3.376 10.022 C 3.503329369781739 10.347870503899307 3.8657498954679372 10.514495550464792 4.196 10.399000000000001 C 4.724 10.272 6.555 9.792000000000002 7.555 9.529000000000002 C 8.083 10.490000000000002 9.161999999999999 12.438000000000002 9.361 12.718000000000002 C 9.627 13.091000000000001 9.81 13.029000000000002 10.219000000000001 12.905000000000001 C 10.538000000000002 12.805000000000001 15.211000000000002 11.121 15.419 11.035 C 15.626999999999999 10.949 15.759 10.886000000000001 15.619 10.674 C 15.519 10.519 14.282 8.860999999999999 13.636 7.994 L 15.818 7.41 C 16.018 7.357 16.04 7.261 15.934 7.141 L 15.934 7.141 Z M 7.124 8.95 C 7.066 8.962 4.352 9.614999999999998 4.207 9.649999999999999 C 4.061999999999999 9.684999999999999 4.062 9.665999999999999 4.046 9.616999999999999 C 4.03 9.568 0.819 2.92 0.775 2.837 C 0.7310000000000001 2.7540000000000004 0.733 2.688 0.775 2.688 C 0.8170000000000001 2.688 3.338 2.4610000000000003 3.427 2.4570000000000003 C 3.516 2.4530000000000003 3.507 2.471 3.539 2.5280000000000005 L 7.157 8.8 C 7.22 8.9 7.182 8.937 7.124 8.949 L 7.124 8.949 Z M 14.776 10.389 C 14.818999999999999 10.456999999999999 14.862 10.501 14.725999999999999 10.549999999999999 C 14.589999999999998 10.598999999999998 10.133 12.108999999999998 10.046 12.149999999999999 C 9.959 12.190999999999999 9.891 12.2 9.78 12.037999999999998 C 9.668999999999999 11.875999999999998 8.219 9.357999999999999 8.219 9.357999999999999 L 12.943 8.12 C 13.06 8.082999999999998 13.097999999999999 8.058 13.171999999999999 8.175999999999998 C 13.245999999999999 8.293999999999997 14.732 10.318999999999999 14.771999999999998 10.387999999999998 L 14.771999999999998 10.387999999999998 Z M 15.076 7.023 C 14.97 7.045999999999999 13.235000000000001 7.478 13.235000000000001 7.478 L 11.819 5.524 C 11.779000000000002 5.468 11.746 5.411 11.845 5.398 C 11.944 5.385 13.556000000000001 5.092 13.629000000000001 5.076 C 13.715200655068678 5.040417440193535 13.814160872457405 5.078682057583842 13.854000000000001 5.162999999999999 C 13.943 5.285 15.17 6.843 15.216 6.9 C 15.261999999999999 6.957000000000001 15.183 7 15.077 7.019 L 15.077 7.019 Z" stroke-linecap="round"/>
            </g>
        </g>
    </g>
</svg>